<?xml version="1.0" ?><!DOCTYPE svg  PUBLIC '-//W3C//DTD SVG 1.1//EN'  'http://www.w3.org/Graphics/SVG/1.1/DTD/svg11.dtd'><svg enable-background="new 0 0 32 32" height="32px" id="Capa_1" version="1.1" viewBox="0 0 32 32" width="32px" xml:space="preserve" xmlns="http://www.w3.org/2000/svg" xmlns:xlink="http://www.w3.org/1999/xlink"><path d="M30,16c0-7.72-6.28-14-14-14S2,8.28,2,16c0,6.11,3.91,11.47,9.73,13.34c0.53,0.17,1.09-0.13,1.26-0.65  c0.16-0.53-0.13-1.09-0.65-1.26C7.35,25.84,4,21.24,4,16C4,9.38,9.38,4,16,4s12,5.38,12,12c0,6.28-4.85,11.45-11,11.96V10.58  c1.11,0.93,2.78,2.89,4.17,4.97c0.3,0.47,0.92,0.59,1.38,0.28c0.46-0.3,0.59-0.93,0.28-1.38C21.54,12.51,18.29,8,16,8  s-5.54,4.51-6.83,6.45c-0.31,0.45-0.18,1.08,0.28,1.38c0.45,0.31,1.08,0.19,1.38-0.28c1.39-2.08,3.06-4.04,4.17-4.97V29  c0,0.55,0.45,1,1,1c0.34,0,0.67-0.01,1-0.04C24.26,29.45,30,23.38,30,16z"/><g/><g/><g/><g/><g/><g/></svg>